<?xml version="1.0" encoding="iso-8859-1"?>
<!-- Generator: Adobe Illustrator 19.0.0, SVG Export Plug-In . SVG Version: 6.00 Build 0)  -->
<svg version="1.1" id="Capa_1" xmlns="http://www.w3.org/2000/svg" xmlns:xlink="http://www.w3.org/1999/xlink" x="0px" y="0px"
	 viewBox="0 0 512 512" style="enable-background:new 0 0 512 512;" xml:space="preserve">
<g>
	<path style="fill:#B3D8F4;" d="M267.75,447.813c0,31.308,25.38,56.687,56.687,56.687h0.063H74.187
		c-31.308,0-56.687-25.38-56.687-56.687v-8.156h250.25V447.813z"/>
	<path style="fill:#B3D8F4;" d="M494.5,89H381.125V64.187c0-31.308,25.38-56.687,56.687-56.687l0,0
		c31.308,0,56.687,25.38,56.687,56.687L494.5,89L494.5,89z"/>
</g>
<path style="fill:#D1E7F8;" d="M130.875,439.657H267.75v8.156c0,31.308,25.38,56.688,56.688,56.688s56.688-25.38,56.688-56.688
	V64.188c0-31.308,25.38-56.688,56.687-56.688h-250.25c-31.308,0-56.687,25.38-56.687,56.688L130.875,439.657L130.875,439.657z"/>
<g>
	<path style="fill:#9BC9FF;" d="M217.563,7.5h-30c-31.308,0-56.688,25.38-56.688,56.688v375.469h30V64.188
		C160.875,32.88,186.255,7.5,217.563,7.5z"/>
	<path style="fill:#9BC9FF;" d="M297.75,447.813v-8.156h-30v8.156c0,31.308,25.38,56.688,56.688,56.688
		c5.193,0,10.222-0.698,15-2.006C315.409,495.918,297.75,473.927,297.75,447.813z"/>
	<circle style="fill:#9BC9FF;" cx="286" cy="198.75" r="85.25"/>
</g>
<circle style="fill:#57A4FF;" cx="256" cy="198.75" r="85.25"/>
<g>
	<rect x="258.5" y="140.16" style="fill:#006DF0;" width="35" height="35"/>
	<rect x="258.5" y="195.91" style="fill:#006DF0;" width="35" height="61.44"/>
</g>
<g>
	<rect x="238.5" y="140.16" style="fill:#FFFFFF;" width="35" height="35"/>
	<rect x="238.5" y="195.91" style="fill:#FFFFFF;" width="35" height="61.44"/>
</g>
<g>
	<path style="fill:#57A4FF;" d="M452.813,9.506c-4.778-1.308-9.807-2.006-15-2.006l0,0c-31.308,0-56.688,25.38-56.688,56.688V89h30
		V64.188C411.125,38.073,428.784,16.082,452.813,9.506z"/>
	<path style="fill:#57A4FF;" d="M47.5,447.813v-8.156h-30v8.156c0,31.308,25.38,56.688,56.688,56.688h30
		C72.88,504.5,47.5,479.12,47.5,447.813z"/>
</g>
<path style="fill:#006DF0;" d="M200.747,198.75c0-41.964,30.321-76.847,70.25-83.934c-4.87-0.865-9.882-1.316-15-1.316
	c-47.082,0-85.25,38.168-85.25,85.25S208.915,284,255.997,284c5.118,0,10.13-0.451,15-1.316
	C231.068,275.597,200.747,240.714,200.747,198.75z"/>
<g>
	<rect x="238.5" y="140.16" style="fill:#BDDBFF;" width="20" height="35"/>
	<rect x="238.5" y="195.91" style="fill:#BDDBFF;" width="20" height="61.44"/>
</g>
<rect x="250.47" y="320.53" width="91.05" height="15"/>
<rect x="225.47" y="320.53" width="15" height="15"/>
<rect x="200.47" y="320.53" width="15" height="15"/>
<rect x="286.33" y="352.06" width="55.19" height="15"/>
<rect x="170.47" y="352.06" width="101.19" height="15"/>
<rect x="171" y="383.59" width="140.02" height="15"/>
<rect x="422.74" y="50" width="15" height="15"/>
<rect x="447.74" y="50" width="15" height="15"/>
<rect x="397.74" y="50" width="15" height="15"/>
<g>
	<rect x="145.67" y="464.06" style="fill:#FFFFFF;" width="15" height="15"/>
	<rect x="170.67" y="464.06" style="fill:#FFFFFF;" width="79.45" height="15"/>
	<rect x="120.67" y="464.06" style="fill:#FFFFFF;" width="15" height="15"/>
	<rect x="261.27" y="27.493" style="fill:#FFFFFF;" width="15" height="15"/>
	<rect x="236.27" y="27.493" style="fill:#FFFFFF;" width="15" height="15"/>
	<rect x="286.27" y="27.493" style="fill:#FFFFFF;" width="71.73" height="15"/>
</g>
<path d="M437.813,0h-250.25c-35.394,0-64.188,28.794-64.188,64.188v355.469h15V64.188C138.375,37.065,160.44,15,187.563,15h209.055
	c-14.048,11.784-22.992,29.46-22.992,49.188v383.625c0,27.122-22.065,49.188-49.188,49.188s-49.188-22.065-49.188-49.188v-15.656H10
	v15.656C10,483.206,38.794,512,74.188,512H324.5l0,0c35.365-0.034,64.125-28.815,64.125-64.187V64.188
	C388.625,37.065,410.69,15,437.813,15S487,37.065,487,64.188V81.5h-85.875v15H502V64.188C502,28.794,473.206,0,437.813,0z
	 M74.188,497C47.065,497,25,474.935,25,447.813v-0.656h235.25v0.656c0,19.727,8.944,37.404,23.003,49.188L74.188,497L74.188,497z"/>
<rect x="170.47" y="73.53" width="15" height="15"/>
<rect x="195.47" y="73.53" width="15" height="15"/>
<rect x="220.47" y="73.53" width="15" height="15"/>
<path d="M255.997,291.5c51.143,0,92.75-41.607,92.75-92.75S307.14,106,255.997,106s-92.75,41.607-92.75,92.75
	S204.854,291.5,255.997,291.5z M255.997,121c42.871,0,77.75,34.878,77.75,77.75s-34.879,77.75-77.75,77.75
	s-77.75-34.878-77.75-77.75S213.126,121,255.997,121z"/>
<g>
	<path style="fill:#FFFFFF;" d="M323.653,201.764l-14.986-0.662c-0.583,13.208-6.042,25.62-15.37,34.948l10.607,10.606
		C315.89,234.67,322.903,218.728,323.653,201.764z"/>
	<path style="fill:#FFFFFF;" d="M314.237,164.121c-2.863-4.816-6.34-9.284-10.333-13.277l-10.607,10.606
		c3.112,3.112,5.819,6.589,8.046,10.335L314.237,164.121z"/>
	<path style="fill:#FFFFFF;" d="M308.335,192.353l14.891-1.802c-0.677-5.594-2.046-11.085-4.071-16.321l-13.99,5.411
		C306.74,183.717,307.808,187.994,308.335,192.353z"/>
</g>
<path d="M281,132.655h-50v50h50V132.655z M266,167.655h-20v-20h20V167.655z"/>
<path d="M281,188.405h-50v76.439h50V188.405z M266,249.845h-20v-46.439h20V249.845z"/>
<g>
</g>
<g>
</g>
<g>
</g>
<g>
</g>
<g>
</g>
<g>
</g>
<g>
</g>
<g>
</g>
<g>
</g>
<g>
</g>
<g>
</g>
<g>
</g>
<g>
</g>
<g>
</g>
<g>
</g>
</svg>
