<svg height="512pt" viewBox="0 0 512 512" width="512pt" xmlns="http://www.w3.org/2000/svg"><path d="m287.476562 33.347656v-11.277344c0-6.605468-5.121093-11.957031-11.441406-11.957031h-254.480468c-6.320313 0-11.441407 5.351563-11.441407 11.957031v172.105469c0 6.601563 5.121094 11.957031 11.441407 11.957031h142.390624c3.332032 0 6.496094 1.515626 8.671876 4.15625l27.390624 33.269532c6.847657 8.320312 19.90625 3.410156 20.109376-7.5625l.339843-18.140625c.125-6.511719 5.207031-11.722657 11.441407-11.722657h44.136718c6.320313 0 11.441406-5.351562 11.441406-11.957031v-80.65625" fill="#ffcb7c"/><path d="m433.402344 351.535156s-62.832032-66.09375-65.277344-71.804687c-2.09375-4.886719-10.152344-24.082031-14.992188-42.804688-2.511718-9.710937-11.757812-16.382812-21.707031-15.117187-6.191406.789062-12.769531 4.574218-17.972656 14.675781-13.871094 26.925781 8.160156 91.386719 8.160156 91.386719v.445312l-88.144531-.066406-7.398438.011719c-6.136718.390625-11.195312 2.496093-15.164062 6.316406-8.96875 8.351563-9.460938 22.515625-1.097656 31.472656 4.128906 4.425781 9.925781 6.566407 15.984375 6.527344l38.90625-.546875-42.304688.578125c-5.8125.039063-11.300781 2.535156-14.945312 7.066406-7.242188 9-6.402344 22.050781 1.941406 30.042969 4.183594 4.011719 9.765625 6.234375 15.5625 6.195312l46.074219-.453124-41.070313.277343c-6.882812.046875-12.21875 2.058594-16.15625 4.46875-9.707031 5.945313-12.925781 18.699219-6.894531 28.351563 3.554688 5.855468 9.441406 9.21875 17.667969 10.085937l45.976562-.132812h-44.148437c-11.980469 0-21.6875 9.707031-21.6875 21.6875 0 11.976562 9.707031 21.6875 21.6875 21.6875h158.667968c9.320313-.0625 11.949219-3.269531 19.457032-8.789063l5.4375-3.996094c4.578125-3.367187 10.105468-5.203124 15.789062-5.242187 2.570313-.015625 5.082032-.285156 7.503906-.785156" fill="#ffd4be"/><path d="m501.285156 484.476562c0 8.097657-6.566406 14.664063-14.664062 14.664063h-38.351563c-8.097656 0-14.660156-6.566406-14.660156-14.664063v-149.027343c0-8.097657 6.5625-14.664063 14.660156-14.664063h38.351563c8.097656 0 14.664062 6.566406 14.664062 14.664063zm0 0" fill="#b0aeed"/><path d="m208.617188 257.851562c11.8125 0 21.394531-10.015624 21.613281-21.667968l.339843-18.140625c.019532-1.0625.714844-1.800781 1.328126-1.800781h44.136718c11.882813 0 21.554688-9.898438 21.554688-22.066407v-80.660156c0-12.984375-20.226563-13.003906-20.226563 0v80.660156c0 1.085938-.699219 1.84375-1.328125 1.84375h-44.136718c-11.660157 0-21.328126 9.707031-21.550782 21.644531-.039062 2.222657.105469 21.394532-2.53125 19.46875l-27.390625-33.273437c-4.105469-4.984375-10.113281-7.839844-16.480469-7.839844h-142.390624c-.628907 0-1.328126-.757812-1.328126-1.84375v-172.105469c0-1.085937.699219-1.84375 1.328126-1.84375h254.480468c.628906 0 1.328125.757813 1.328125 1.84375v11.277344c0 12.984375 20.226563 13.003906 20.226563 0v-11.277344c0-12.171874-9.671875-22.070312-21.554688-22.070312h-254.480468c-11.886719 0-21.554688 9.898438-21.554688 22.070312v172.105469c0 12.167969 9.667969 22.066407 21.554688 22.066407h142.390624c.300782 0 .617188.171874.863282.472656l27.390625 33.269531c4.191406 5.09375 10.199219 7.867187 16.417969 7.867187zm0 0"/><path d="m486.621094 310.675781h-38.351563c-10.941406 0-20.242187 7.132813-23.515625 16.988281-23.039062-24.515624-44.253906-47.695312-47.574218-52.476562-2.511719-5.902344-9.851563-23.761719-14.257813-40.796875-3.824219-14.785156-17.910156-24.507813-32.773437-22.613281-7.492188.957031-18.027344 5.210937-25.683594 20.074218-11.785156 22.878907-2.496094 64.789063 3.589844 86.339844l-74.597657-.054687-7.402343.011719c-.207032 0-.417969.003906-.625.019531-8.539063.542969-15.761719 3.59375-21.480469 9.066406-6.273438 5.875-9.898438 13.863281-10.199219 22.5-.28125 8.023437 2.339844 15.6875 7.40625 21.785156-.550781.582031-1.082031 1.183594-1.589844 1.8125-10.535156 13.09375-9.417968 31.699219 2.558594 43.429688-3.691406 3.910156-6.300781 8.734375-7.566406 14.109375-2.378906 10.09375.667968 20.988281 7.933594 28.378906-4.914063 5.601562-7.894532 12.933594-7.894532 20.949219 0 17.535156 14.265625 31.800781 31.800782 31.800781h158.738281c11.339843-.074219 16.515625-4.023438 22.511719-8.597656 2.738281-2.085938 5.523437-4.121094 8.304687-6.15625 2.765625-2.03125 6.023437-3.144532 9.445313-3.253906 3.738281 8.953124 12.582031 15.261718 22.871093 15.261718h38.351563c13.664062 0 24.777344-11.113281 24.777344-24.773437v-149.03125c0-13.660157-11.113282-24.773438-24.777344-24.773438zm-82.648438 170.277344c-5.589844 4.070313-11.535156 10.773437-18.902344 10.820313h-158.671874c-13.851563 0-15.378907-20.929688-1.757813-23.015626l45.941406-.132812c12.964844-.039062 12.953125-20.226562-.03125-20.226562h-44.148437c-16.90625 0-14.628906-20.617188 1.0625-22.398438l43.664062-.425781c12.957032-.128907 12.828125-20.226563-.167968-20.226563l-41.074219.277344c-6.8125.046875-13.472657.046875-16.378907-7.792969-3.464843-9.339843 3.875-15.113281 12.425782-15.144531l38.890625-.546875c12.949219-.4375 12.835937-20.335937-.261719-20.222656l-39.410156.539062c-9.820313-.3125-14.34375-11.828125-8.359375-19.257812 4.222656-5.242188 10.570312-4.828125 16.671875-4.839844l88.144531.070313h.007813c6.964843 0 11.765624-7.378907 9.570312-13.828126-.054688-.15625-5.382812-15.871093-8.96875-34.476562-4.390625-22.792969-4.3125-40.199219.230469-49.011719 4.09375-7.949219 17.335937-15.414062 20.894531-1.65625 4.777344 18.476563 12.421875 37.101563 15.488281 44.253907.769531 1.800781 3.101563 7.234374 64.667969 72.078124v118.058594c-7.070312.457032-13.78125 2.878906-19.527344 7.105469zm87.199219 3.523437c0 2.511719-2.039063 4.550782-4.550781 4.550782h-38.351563c-2.507812 0-4.546875-2.039063-4.546875-4.550782v-149.027343c0-2.507813 2.039063-4.550781 4.546875-4.550781h38.351563c2.511718 0 4.550781 2.042968 4.550781 4.550781zm0 0"/><path d="m218.285156 56.40625h-137.382812c-12.984375 0-13.003906 20.226562 0 20.226562h137.382812c12.984375 0 13.003906-20.226562 0-20.226562zm0 0"/><path d="m218.285156 95.941406h-137.382812c-12.984375 0-13.003906 20.226563 0 20.226563h137.382812c12.984375 0 13.003906-20.226563 0-20.226563zm0 0"/><path d="m218.285156 135.476562h-137.382812c-12.984375 0-13.003906 20.226563 0 20.226563h137.382812c12.984375 0 13.003906-20.226563 0-20.226563zm0 0"/><path d="m295.878906 67.753906c-3.015625-4.613281-9.460937-5.816406-14.015625-2.792968-4.589843 3.050781-5.835937 9.441406-2.789062 14.015624 7.230469 10.863282 24.050781-.378906 16.804687-11.222656zm0 0"/><path d="m313.941406 367.773438c-1.949218-4.75-7.375-7.28125-12.269531-5.804688-5.648437 1.707031-8.644531 8.109375-6.394531 13.535156 2.109375 5.082032 8.105468 7.585938 13.191406 5.460938 5.074219-2.117188 7.597656-8.085938 5.472656-13.191406zm0 0"/></svg>