<svg height="511pt" viewBox="1 -26 511.99975 511" width="511pt" xmlns="http://www.w3.org/2000/svg"><path d="m50.097656 426.578125-17.085937-17.085937c-44.015625-44.015626-44.015625-115.382813 0-159.402344l89.601562-89.601563c5.234375-5.230469 13.71875-5.230469 18.953125 0l30.777344 30.78125c5.234375 5.230469 5.234375 13.714844 0 18.949219l-89.601562 89.601562c-16.550782 16.550782-16.550782 43.386719 0 59.941407l17.085937 17.085937c16.550781 16.550782 43.386719 16.550782 59.941406 0l89.601563-89.601562c5.234375-5.234375 13.714844-5.234375 18.949218 0l30.78125 30.777344c5.230469 5.234374 5.230469 13.71875 0 18.953124l-89.605468 89.601563c-44.015625 44.015625-115.382813 44.015625-159.398438 0zm0 0" fill="#6e7ca8"/><path d="m50.097656 426.578125c37.066406 37.066406 93.523438 42.914063 136.714844 17.554687-11.820312-16.738281-22.667969-40.484374-26.917969-67.410156l-.125.125c-16.554687 16.550782-43.390625 16.550782-59.941406 0l-17.085937-17.085937c-16.550782-16.550781-16.550782-43.390625 0-59.941407l89.601562-89.601562c5.234375-5.234375 5.234375-13.71875 0-18.949219l-30.777344-30.78125c-5.234375-5.230469-13.71875-5.230469-18.953125 0l-89.601562 89.605469c-44.015625 44.015625-44.015625 115.382812 0 159.398438zm0 0" fill="#54669e"/><path d="m133.6875 248.875-49.730469-49.726562 38.65625-38.660157c5.234375-5.230469 13.71875-5.230469 18.953125 0l30.777344 30.78125c5.234375 5.230469 5.234375 13.714844 0 18.949219zm0 0" fill="#a3defe"/><path d="m260.441406 375.632812-49.726562-49.730468 38.65625-38.65625c5.230468-5.230469 13.714844-5.230469 18.949218 0l30.78125 30.777344c5.230469 5.234374 5.230469 13.71875 0 18.953124zm0 0" fill="#89d47f"/><path d="m470.65625 122.253906c0 67.242188-54.511719 121.753906-121.753906 121.753906-67.242188 0-121.753906-54.511718-121.753906-121.753906 0-67.242187 54.511718-121.753906 121.753906-121.753906 67.242187 0 121.753906 54.511719 121.753906 121.753906zm0 0" fill="#eea849"/><path d="m410.023438 227.570312c-103.246094-21.007812-151.820313-119.949218-134.285157-202.640624-29.507812 22.21875-48.589843 57.542968-48.589843 97.324218 0 67.242188 54.511718 121.753906 121.753906 121.753906 22.277344 0 43.15625-5.992187 61.121094-16.4375zm0 0" fill="#e9901b"/><g fill="#f7ef87"><path d="m369.039062 129.753906h-68.214843c-4.140625 0-7.5-3.359375-7.5-7.5 0-4.144531 3.359375-7.5 7.5-7.5h68.214843c13.050782 0 23.667969-10.617187 23.667969-23.667968 0-13.046876-10.617187-23.664063-23.667969-23.664063h-68.214843c-4.140625 0-7.5-3.359375-7.5-7.5s3.359375-7.5 7.5-7.5h68.214843c21.320313 0 38.667969 17.347656 38.667969 38.664063 0 21.320312-17.347656 38.667968-38.667969 38.667968zm0 0"/><path d="m369.039062 192.085938h-68.214843c-4.140625 0-7.5-3.359376-7.5-7.5 0-4.144532 3.359375-7.5 7.5-7.5h68.214843c13.050782 0 23.667969-10.617188 23.667969-23.667969 0-13.046875-10.617187-23.664063-23.667969-23.664063-4.140624 0-7.5-3.359375-7.5-7.5s3.359376-7.5 7.5-7.5c21.320313 0 38.667969 17.34375 38.667969 38.664063 0 21.320312-17.347656 38.667969-38.667969 38.667969zm0 0"/><path d="m324.628906 212.363281c-4.144531 0-7.5-3.355469-7.5-7.5v-165.21875c0-4.144531 3.355469-7.5 7.5-7.5 4.144532 0 7.5 3.355469 7.5 7.5v165.21875c0 4.144531-3.355468 7.5-7.5 7.5zm0 0"/><path d="m361.15625 67.421875c-4.144531 0-7.5-3.359375-7.5-7.5v-19.445313c0-4.140624 3.355469-7.5 7.5-7.5 4.140625 0 7.5 3.359376 7.5 7.5v19.445313c0 4.140625-3.359375 7.5-7.5 7.5zm0 0"/><path d="m361.15625 211.53125c-4.144531 0-7.5-3.359375-7.5-7.5v-19.445312c0-4.144532 3.355469-7.5 7.5-7.5 4.140625 0 7.5 3.355468 7.5 7.5v19.445312c0 4.140625-3.359375 7.5-7.5 7.5zm0 0"/></g><path d="m265.375 261.0625c-1.378906 0-2.773438-.378906-4.023438-1.175781-25.644531-16.347657-46.179687-39.429688-59.386718-66.757813-1.800782-3.730468-.238282-8.214844 3.492187-10.015625 3.730469-1.804687 8.214844-.242187 10.015625 3.488281 11.992188 24.820313 30.644532 45.789063 53.941406 60.636719 3.492188 2.226563 4.519532 6.863281 2.292969 10.355469-1.429687 2.242188-3.855469 3.46875-6.332031 3.46875zm0 0" fill="#efd176"/><path d="m430.835938 262.0625c-2.507813 0-4.960938-1.257812-6.378907-3.546875-2.183593-3.519531-1.101562-8.140625 2.417969-10.324219 16.949219-10.519531 31.398438-24.113281 42.945312-40.40625 2.394532-3.378906 7.074219-4.175781 10.453126-1.78125 3.378906 2.394532 4.179687 7.074219 1.785156 10.457032-12.710938 17.929687-28.617188 32.894531-47.273438 44.472656-1.230468.765625-2.601562 1.128906-3.949218 1.128906zm0 0" fill="#efd176"/><path d="m501.386719 160.921875c-.496094 0-1-.050781-1.503907-.152344-4.058593-.824219-6.679687-4.785156-5.855468-8.84375 1.972656-9.699219 2.972656-19.683593 2.972656-29.671875 0-29.679687-8.746094-58.3125-25.289062-82.800781-2.316407-3.429687-1.417969-8.09375 2.015624-10.414063 3.433594-2.316406 8.097657-1.414062 10.414063 2.019532 18.226563 26.976562 27.859375 58.511718 27.859375 91.195312 0 10.988282-1.101562 21.976563-3.273438 32.660156-.722656 3.554688-3.847656 6.007813-7.339843 6.007813zm0 0" fill="#efd176"/><path d="m207.792969 64.085938c-1.0625 0-2.140625-.226563-3.164063-.703126-3.753906-1.75-5.378906-6.210937-3.628906-9.964843 7.671875-16.457031 17.984375-31.441407 30.65625-44.542969 2.878906-2.976562 7.625-3.058594 10.601562-.175781 2.980469 2.878906 3.058594 7.628906.179688 10.605469-11.511719 11.898437-20.878906 25.511718-27.84375 40.453124-1.269531 2.726563-3.976562 4.328126-6.800781 4.328126zm0 0" fill="#efd176"/></svg>